<?xml version="1.0" encoding="UTF-8"?>
<svg width="32px" height="32px" viewBox="0 0 32 32" version="1.1" xmlns="http://www.w3.org/2000/svg" xmlns:xlink="http://www.w3.org/1999/xlink">
    <!-- Generator: Sketch 52.2 (67145) - http://www.bohemiancoding.com/sketch -->
    <title>UI/icon/Github</title>
    <desc>Created with Sketch.</desc>
    <g id="Page-1" stroke="none" stroke-width="1" fill="none" fill-rule="evenodd">
        <g id="Desktop" transform="translate(-634.000000, -1904.000000)">
            <g id="footer" transform="translate(0.000000, 1880.000000)">
                <g id="UI/icon/Github/white" transform="translate(634.000000, 24.000000)">
                    <circle id="Oval" fill="#B1B1B1" cx="16" cy="16.3333333" r="15.6666667"></circle>
                    <g id="Github" stroke-width="1" transform="translate(0.000000, -0.333333)" fill="#FFFFFF">
                        <path d="M16.0288264,0.451299995 C7.20978512,0.451299995 0.058446281,7.60203701 0.058446281,16.4236157 C0.058446281,23.48072 4.63444628,29.4679249 10.9799669,31.5799513 C11.7781157,31.7278064 12.0711405,31.2334573 12.0711405,30.811581 C12.0711405,30.4307021 12.0563306,29.1724792 12.0494545,27.837816 C7.60647934,28.8040318 6.66895868,25.9532589 6.66895868,25.9532589 C5.94247934,24.1070542 4.89573554,23.6161436 4.89573554,23.6161436 C3.4467438,22.6248005 5.00495868,22.6451669 5.00495868,22.6451669 C6.60866116,22.7575791 7.45309091,24.2911457 7.45309091,24.2911457 C8.8774876,26.7330027 11.189157,26.0270542 12.1004959,25.6189319 C12.2438347,24.5868559 12.657719,23.8817009 13.1144463,23.4831005 C9.56720661,23.0792102 5.83828099,21.7096331 5.83828099,15.5893851 C5.83828099,13.8455416 6.46214876,12.4206842 7.4837686,11.3021169 C7.31795041,10.8995491 6.77130579,9.27525922 7.63847934,7.07515452 C7.63847934,7.07515452 8.97957025,6.64587225 12.0314711,8.71240483 C13.3053884,8.35850484 14.6716033,8.18102585 16.0288264,8.17494237 C17.3860496,8.18102585 18.7533223,8.35850484 20.0296198,8.71240483 C23.0778182,6.64587225 24.4170579,7.07515452 24.4170579,7.07515452 C25.2863471,9.27525922 24.739438,10.8995491 24.5736198,11.3021169 C25.5976198,12.4206842 26.2172562,13.8455416 26.2172562,15.5893851 C26.2172562,21.7241806 22.4811901,23.0749782 18.9249587,23.4704046 C19.4977851,23.9660761 20.0081983,24.9381109 20.0081983,26.4282996 C20.0081983,28.565189 19.989686,30.2852275 19.989686,30.811581 C19.989686,31.2366313 20.277157,31.7346834 21.0866777,31.5778353 C27.4287603,29.4634284 31.9989421,23.4783395 31.9989421,16.4236157 C31.9989421,7.60203701 24.8486612,0.451299995 16.0288264,0.451299995" id="Fill-51"></path>
                        <path d="M6.10723967,23.0508445 C6.07206612,23.1304587 5.94723967,23.1539992 5.83352066,23.0995123 C5.71768595,23.047406 5.6526281,22.9392258 5.69018182,22.8596115 C5.72456198,22.7778813 5.84965289,22.7553988 5.96522314,22.8096212 C6.08132231,22.861992 6.14743802,22.9712302 6.10723967,23.0508445" id="Fill-52"></path>
                        <path d="M6.42803306,23.6986031 C6.32357025,23.5872489 6.304,23.4383359 6.38122314,23.3666566 C6.4597686,23.2960353 6.60416529,23.3290977 6.70889256,23.4404519 C6.81335537,23.5531285 6.83371901,23.7009836 6.7541157,23.7723984 C6.67795041,23.8430197 6.52905785,23.8102218 6.42803306,23.6986031 Z" id="Fill-53"></path>
                        <path d="M7.38380165,24.6923268 C7.28595041,24.7603031 7.12595041,24.6965588 7.02704132,24.5545227 C6.92919008,24.4124866 6.92919008,24.2421491 7.02915702,24.1739083 C7.12833058,24.1056674 7.28595041,24.1670313 7.38618182,24.3080094 C7.4837686,24.4521615 7.4837686,24.6227635 7.38380165,24.6923268" id="Fill-54"></path>
                        <path d="M8.24647934,25.5810442 C8.15894215,25.6775864 7.97249587,25.6516655 7.83603306,25.5199449 C7.69639669,25.3911338 7.65752066,25.2083648 7.74532231,25.1118226 C7.83391736,25.0150158 8.02142149,25.0422593 8.15894215,25.1729219 C8.29752066,25.3014685 8.33983471,25.48556 8.24647934,25.5810442" id="Fill-55"></path>
                        <path d="M9.43656198,26.0970822 C9.39795041,26.2221904 9.21838017,26.2790577 9.0374876,26.2258934 C8.8568595,26.171142 8.73864463,26.0246095 8.7751405,25.8981788 C8.81269421,25.7722772 8.99305785,25.7130293 9.17527273,25.7698967 C9.35563636,25.8243835 9.4741157,25.9698581 9.43656198,26.0970822" id="Fill-56"></path>
                        <path d="M10.7435372,26.192831 C10.7480331,26.3245516 10.5946446,26.4337898 10.4047603,26.4359058 C10.2138182,26.4404023 10.0593719,26.3338091 10.0572562,26.2042044 C10.0572562,26.0711613 10.2072066,25.9629811 10.3981488,25.9598071 C10.5880331,25.9561041 10.7435372,26.0619038 10.7435372,26.192831" id="Fill-57"></path>
                        <path d="M11.9598017,25.9857281 C11.9825455,26.1142747 11.8505785,26.2462598 11.6620165,26.2811737 C11.4766281,26.3152941 11.3049917,26.2359443 11.2814545,26.1084557 C11.2584463,25.9767351 11.3927934,25.84475 11.5779174,25.8106296 C11.7667438,25.7778317 11.9357355,25.8550654 11.9598017,25.9857281" id="Fill-58"></path>
                    </g>
                </g>
            </g>
        </g>
    </g>
</svg>