<?xml version="1.0" encoding="UTF-8"?>
<svg width="32px" height="32px" viewBox="0 0 32 32" version="1.1" xmlns="http://www.w3.org/2000/svg" xmlns:xlink="http://www.w3.org/1999/xlink">
    <!-- Generator: Sketch 52.2 (67145) - http://www.bohemiancoding.com/sketch -->
    <title>UI/icon/Reddit</title>
    <desc>Created with Sketch.</desc>
    <g id="Page-1" stroke="none" stroke-width="1" fill="none" fill-rule="evenodd">
        <g id="Desktop" transform="translate(-698.000000, -1904.000000)">
            <g id="footer" transform="translate(0.000000, 1880.000000)">
                <g id="UI/icon/Reddit/white" transform="translate(698.000000, 24.000000)">
                    <g id="Reddit">
                        <path d="M16,32 C24.836556,32 32,24.836556 32,16 C32,7.163444 24.836556,0 16,0 C7.163444,0 0,7.163444 0,16 C0,24.836556 7.163444,32 16,32 Z" id="Combined-Shape" fill="#FFFFFF"></path>
                        <g id="Group" transform="translate(4.333333, 7.000000)" fill="#B1B1B1">
                            <path d="M22,9.13065454 C22,7.70533232 20.853,6.54561537 19.44275,6.54561537 C18.79775,6.54561537 18.20925,6.79049785 17.759,7.19029568 C16.15675,6.14986101 14.0385,5.47283295 11.69275,5.35430882 L12.92625,1.41319181 L16.29175,2.21430377 C16.3295,3.36239575 17.26275,4.28556988 18.408,4.28556988 C19.57675,4.28556988 20.52775,3.32448825 20.52775,2.14278494 C20.52775,0.961081627 19.5765,0 18.408,0 C17.559,0 16.82725,0.508213293 16.48875,1.23805914 L12.707,0.338640384 C12.4565,0.279251959 12.202,0.425069497 12.12525,0.673237301 L10.665,5.3388931 C8.1675,5.38842557 5.90175,6.07025524 4.20375,7.15617892 C3.7585,6.776093 3.18375,6.54561537 2.55725,6.54561537 C1.147,6.54586808 0,7.70533232 0,9.13065454 C0,10.0381602 0.466,10.8359869 1.1675,11.2969421 C1.13175,11.5284306 1.1125,11.7629517 1.1125,12.0002527 C1.1125,15.6760172 5.5275,18.6666667 10.955,18.6666667 C16.382,18.6666667 20.7975,15.6760172 20.7975,12.0002527 C20.7975,11.7801365 20.781,11.5625474 20.75025,11.3472328 C21.4965,10.8963862 22,10.0730351 22,9.13065454 L22,9.13065454 Z M18.408,0.996209249 C19.03375,0.996209249 19.54275,1.51099318 19.54275,2.14354309 C19.54275,2.776093 19.03375,3.29062421 18.408,3.29062421 C17.782,3.29062421 17.273,2.776093 17.273,2.14354309 C17.273,1.51099318 17.782,0.996209249 18.408,0.996209249 L18.408,0.996209249 Z M0.985,9.13065454 C0.985,8.25448572 1.69025,7.54131918 2.557,7.54131918 C2.84975,7.54131918 3.12325,7.62446298 3.3585,7.76623705 C2.48125,8.48673237 1.82475,9.33459692 1.4545,10.2613091 C1.16475,9.97295931 0.985,9.57290877 0.985,9.13065454 L0.985,9.13065454 Z M19.8125,12.0007582 C19.8125,15.1271165 15.8385,17.6712156 10.955,17.6712156 C6.07075,17.6712156 2.0975,15.1273692 2.0975,12.0007582 C2.0975,11.8905737 2.1035,11.7819055 2.113,11.67349 C2.14275,11.3411676 2.21875,11.0161739 2.3345,10.7012889 C2.63475,9.8850139 3.21075,9.13596159 3.9975,8.49734647 C4.24925,8.29289866 4.522,8.0998231 4.814,7.91963609 C6.40775,6.93631539 8.57225,6.3297953 10.955,6.3297953 C13.37225,6.3297953 15.566,6.95350013 17.165,7.96209249 C17.45775,8.14632297 17.72975,8.34394743 17.98025,8.55294415 C18.73575,9.18195603 19.288,9.9153399 19.57925,10.7126611 C19.694,11.028557 19.77,11.3538034 19.7985,11.686884 C19.80725,11.791256 19.8125,11.8953753 19.8125,12.0007582 L19.8125,12.0007582 Z M20.4805,10.3206975 C20.12075,9.38438211 19.46575,8.5279252 18.589,7.79833207 C18.835,7.63634066 19.128,7.54131918 19.443,7.54131918 C20.31,7.54131918 21.01525,8.254233 21.01525,9.13065454 C21.01475,9.60449836 20.80725,10.0295679 20.4805,10.3206975 L20.4805,10.3206975 Z" id="Shape"></path>
                            <path d="M9.33333333,11.0125065 C9.33333333,10.0993925 8.59271478,9.33333333 7.67917526,9.33333333 C6.76591065,9.33333333 6,10.0993925 6,11.0125065 C6,11.9253456 6.76618557,12.6666667 7.67917526,12.6666667 C8.59271478,12.6655672 9.33333333,11.9253456 9.33333333,11.0125065 L9.33333333,11.0125065 Z" id="Shape"></path>
                            <path d="M14.3467919,9.33333333 C13.4343551,9.33333333 12.6666667,10.0991808 12.6666667,11.0123701 C12.6666667,11.9258343 13.4343551,12.6666667 14.3467919,12.6666667 C15.2595034,12.6666667 16,11.9263841 16,11.0123701 C15.9994507,10.098631 15.2595034,9.33333333 14.3467919,9.33333333 L14.3467919,9.33333333 Z" id="Shape"></path>
                            <path d="M13.837832,14.1475944 C13.2890507,14.7165037 12.3650596,14.99278 11.0112021,14.99278 C11.0070167,14.99278 11.0033237,14.9940579 10.9993845,14.9940579 C10.9951991,14.9940579 10.9917522,14.99278 10.987813,14.99278 C9.63370933,14.99278 8.709472,14.7165037 8.1614293,14.1475944 C7.97210098,13.9508019 7.66484254,13.9508019 7.47551422,14.1475944 C7.2859397,14.3446425 7.2859397,14.6633442 7.47551422,14.85937 C8.21436244,15.6266053 9.36338099,16 10.987813,16 C10.9919984,16 10.9954453,15.9984666 10.9993845,15.9984666 C11.0033237,15.9984666 11.0070167,16 11.0112021,16 C12.6353879,16 13.7846527,15.6266053 14.5242395,14.8598812 C14.7140602,14.662833 14.7140602,14.3443869 14.5247319,14.1481056 C14.3349112,13.951313 14.0276528,13.951313 13.837832,14.1475944 L13.837832,14.1475944 Z" id="Shape"></path>
                        </g>
                    </g>
                </g>
            </g>
        </g>
    </g>
</svg>