<?xml version="1.0" encoding="UTF-8"?>
<svg width="32px" height="32px" viewBox="0 0 32 32" version="1.1" xmlns="http://www.w3.org/2000/svg" xmlns:xlink="http://www.w3.org/1999/xlink">
    <!-- Generator: Sketch 52.2 (67145) - http://www.bohemiancoding.com/sketch -->
    <title>UI/icon/Slack</title>
    <desc>Created with Sketch.</desc>
    <g id="Page-1" stroke="none" stroke-width="1" fill="none" fill-rule="evenodd">
        <g id="Desktop" transform="translate(-762.000000, -1904.000000)">
            <g id="footer" transform="translate(0.000000, 1880.000000)">
                <g id="UI/icon/Slack/white" transform="translate(762.000000, 24.000000)">
                    <circle id="Oval" fill="#B1B1B1" cx="15.6666667" cy="15.6666667" r="15.3333333"></circle>
                    <g id="Slack" stroke-width="1" fill="#FFFFFF">
                        <path d="M19.9389239,12.9445714 C20.869433,12.6417998 21.4679409,12.4470557 21.4679409,12.4470557 C22.2650055,12.1876984 22.7012537,11.3303082 22.4422706,10.5319519 C22.1832875,9.73373552 21.3271345,9.29685683 20.5299303,9.55621421 L19.001012,10.0538768 C18.6986471,9.12197246 18.5041626,8.52256175 18.5041626,8.52256175 C18.2451795,7.72420546 17.3890265,7.28732678 16.591962,7.54682404 C15.7947577,7.80618142 15.3585094,8.66357159 15.6176322,9.46178798 L16.114706,10.9933687 L12.9208166,12.032979 C12.6183491,11.1007161 12.4237864,10.5010361 12.4237864,10.5010361 C12.1646636,9.70281967 11.3085107,9.26594099 10.5114461,9.52529836 C9.71424186,9.78465574 9.27799359,10.6420459 9.5371164,11.4404022 L10.0343641,12.9725187 L8.45634378,13.4861639 C7.71166254,13.7558732 7.29315475,14.5615038 7.51553939,15.3348197 C7.74728319,16.1414295 8.6027377,16.6331453 9.39393533,16.3757465 C9.40071036,16.3735374 10.0188598,16.1723989 10.9722048,15.8621944 L12.0105945,19.061668 L10.4321028,19.5754667 C9.6874216,19.8451759 9.26891382,20.6508065 9.49115877,21.4241224 C9.72304225,22.2307323 10.5784968,22.7224481 11.3695547,22.4650492 C11.3763625,22.4628398 11.9947643,22.2616247 12.9484273,21.9513193 L13.4612555,23.5314361 C13.7307153,24.2771935 14.5351834,24.696306 15.3073833,24.4736 C16.1128292,24.2415213 16.6038356,23.3848306 16.346808,22.5924896 C16.3446025,22.5857058 16.1438125,21.9668425 15.8341325,21.0123569 C16.8773654,20.6729048 17.9879347,20.3115418 19.0289766,19.9728018 L19.5417714,21.5528219 C19.8112312,22.2985793 20.6156993,22.7176918 21.3878992,22.4951257 C22.1933451,22.2629071 22.6843514,21.4062164 22.4273239,20.6140153 C22.4251184,20.6072 22.2243244,19.9883292 21.9146376,19.0338487 C22.8450928,18.7310916 23.4435603,18.5363585 23.4435603,18.5363585 C24.2407645,18.2770011 24.6768731,17.4196109 24.41789,16.6212547 C24.1589069,15.8230383 23.3027539,15.3861595 22.5056893,15.6455169 L20.9767423,16.1431889 C20.6378622,15.098739 20.277111,13.986883 19.9389239,12.9445714 Z M17.0527556,13.8836813 L18.0909364,17.082518 L14.8964703,18.122316 C14.5575418,17.0776763 14.1967258,15.9655737 13.8584827,14.9230447 C14.9015235,14.5836562 16.0118773,14.2223655 17.0527556,13.8836813 Z M0,16 C0,7.16344357 7.16344357,0 16,0 C24.8365564,0 32,7.16344357 32,16 C32,24.8365564 24.8365564,32 16,32 C7.16344357,32 0,24.8365564 0,16 Z" id="Combined-Shape"></path>
                    </g>
                </g>
            </g>
        </g>
    </g>
</svg>