<?xml version="1.0" encoding="UTF-8"?>
<svg width="32px" height="32px" viewBox="0 0 32 32" version="1.1" xmlns="http://www.w3.org/2000/svg" xmlns:xlink="http://www.w3.org/1999/xlink">
    <!-- Generator: Sketch 52.2 (67145) - http://www.bohemiancoding.com/sketch -->
    <title>UI/icon/Telegram</title>
    <desc>Created with Sketch.</desc>
    <g id="Page-1" stroke="none" stroke-width="1" fill="none" fill-rule="evenodd">
        <g id="Desktop" transform="translate(-826.000000, -1904.000000)">
            <g id="footer" transform="translate(0.000000, 1880.000000)">
                <g id="UI/icon/Telegram/white" transform="translate(826.000000, 24.000000)">
                    <circle id="Oval" fill="#B1B1B1" cx="15.6666667" cy="15.6666667" r="15.3333333"></circle>
                    <g id="Telegram" stroke-width="1" fill="#FFFFFF">
                        <path d="M13.3389333,19.2542667 L13.0666667,23.3333333 C13.4666667,23.3333333 13.6434,23.1504 13.8666667,22.9333333 L15.7884738,21.0646162 L19.7866667,24.0185333 C20.5224667,24.42452 21.05352,24.21432 21.2368,23.3354 L23.8614667,10.967 C24.1301867,9.88964 23.4507867,9.401 22.74688,9.72057333 L7.33488,15.6633733 C6.28286667,16.0853333 6.289,16.6722533 7.14312,16.9337733 L11.0981867,18.1682133 L20.2545867,12.3915467 C20.68684,12.1294267 21.08356,12.270348 20.7579467,12.5593333 L13.3390392,19.2543305 Z M16,32 C7.163444,32 0,24.836556 0,16 C0,7.163444 7.163444,0 16,0 C24.836556,0 32,7.163444 32,16 C32,24.836556 24.836556,32 16,32 Z" id="Combined-Shape"></path>
                    </g>
                </g>
            </g>
        </g>
    </g>
</svg>