<?xml version="1.0" encoding="UTF-8"?>
<svg width="160px" height="120px" viewBox="0 0 160 120" version="1.1" xmlns="http://www.w3.org/2000/svg" xmlns:xlink="http://www.w3.org/1999/xlink">
    <!-- Generator: Sketch 52.2 (67145) - http://www.bohemiancoding.com/sketch -->
    <title>UI/image/dappsbrowser</title>
    <desc>Created with Sketch.</desc>
    <defs>
        <rect id="path-1" x="0" y="0" width="160" height="120"></rect>
        <path d="M8.20340889,0.0238197531 C8.42802889,0.0238197531 8.54033889,0.250695062 8.42802889,0.434717284 L5.18542444,5.15391605 L5.18542444,9.67480679 C5.18542444,9.81664704 5.05908333,9.94408963 4.91871111,9.94408963 L3.62729889,9.94408963 C3.47289556,9.94408963 3.36057333,9.81664704 3.36057333,9.67480679 L3.36057333,5.1682 L0.160098889,0.434717284 C0.0477888889,0.250695062 0.160098889,0.0238197531 0.384596667,0.0238197531 L1.81649111,0.0238197531 C1.92880111,0.0238197531 1.99898111,0.0946814815 2.04098889,0.151374074 L4.28698111,3.41088765 L6.53298556,0.151374074 C6.57510333,0.0946814815 6.64528333,0.0238197531 6.75760556,0.0238197531 L8.20340889,0.0238197531 Z" id="path-3"></path>
        <path d="M1.71269505,2.05123335 L3.81519877,2.05123335 C3.7734263,1.5768379 3.32792897,1.17947428 2.79876725,1.17947428 C2.24186871,1.17947428 1.78232379,1.56411856 1.71269505,2.05123335 Z M2.84053972,0 C4.2748512,0 5.44444444,0.999974218 5.44444444,2.38449111 C5.44444444,2.47434161 5.43052825,2.64102072 5.41660011,2.73077189 C5.40267198,2.85888543 5.27734263,2.94863545 5.15201328,2.94863545 L1.58737765,2.94863545 C1.62915011,3.47431583 2.11653936,4.06410548 2.9240966,4.06410548 C3.3557733,4.06410548 3.75961762,3.91034778 4.01026436,3.74356705 C4.1494024,3.66663797 4.2748512,3.64099608 4.37221676,3.74356705 L4.94315095,4.34617765 C5.04062402,4.43592768 5.06848029,4.57686193 4.92922281,4.67943381 C4.46968983,5.07689973 3.75961762,5.38461538 2.85446786,5.38461538 C1.18353333,5.38461538 0,4.16667645 0,2.69230792 C0,1.24358242 1.18353333,0 2.84053972,0 Z" id="path-5"></path>
        <path d="M3.37447742,0 C5.07338242,0 5.75555556,1.24764676 5.75555556,2.61350307 L5.75555556,5.13506503 C5.75555556,5.2664072 5.63515582,5.38461538 5.50148186,5.38461538 L4.404472,5.38461538 C4.25731677,5.38461538 4.15039831,5.2664072 4.15039831,5.13506503 L4.15039831,2.53469708 C4.15039831,1.85182144 3.78919911,1.41839136 3.14704419,1.41839136 C2.45149331,1.41839136 2.02339386,1.89122387 1.88961638,2.24584911 L1.88961638,5.13506503 C1.88961638,5.31894418 1.80934989,5.38461538 1.55516117,5.38461538 L0.56529983,5.38461538 C0.431510845,5.38461538 0.311111111,5.2664072 0.311111111,5.13506503 L0.311111111,1.42350033 L0.311111111,0.380788869 L0.311111111,0.339195582 C0.311111111,0.207750658 0.431510845,0.089542245 0.56529983,0.089542245 L1.55516117,0.089542245 C1.80934989,0.089542245 1.88961638,0.155213332 1.88961638,0.339195582 L1.88961638,0.445521504 C2.22109237,0.22620003 2.7224531,0 3.37447742,0 Z" id="path-7"></path>
        <path d="M2.72228549,3.99999734 C3.42600335,3.99999734 3.9970365,3.41031158 3.9970365,2.67948698 C3.9970365,1.96158493 3.42600335,1.38472011 2.72228549,1.38472011 C2.00516687,1.38472011 1.44741944,1.96158493 1.44741944,2.67948698 C1.44741944,3.41031158 2.00516687,3.99999734 2.72228549,3.99999734 Z M2.72228549,0 C4.22268679,0 5.44444444,1.23076033 5.44444444,2.67948698 C5.44444444,4.15385437 4.22268679,5.38461538 2.72228549,5.38461538 C1.22174615,5.38461538 0,4.15385437 0,2.67948698 C0,1.23076033 1.22174615,0 2.72228549,0 Z" id="path-9"></path>
        <path d="M6.8999614,0.0429322115 C8.67646316,0.0429322115 9.32871579,1.26885994 9.32871579,2.62374247 L9.32871579,5.08860603 C9.32871579,5.21766179 9.2176614,5.33381221 9.06498772,5.33381221 L7.94084912,5.33381221 C7.78817544,5.33381221 7.67723158,5.21766179 7.67723158,5.08860603 L7.67723158,2.53350529 C7.67723158,1.86251715 7.33012982,1.43663221 6.63613509,1.43663221 C5.83122105,1.43663221 5.47035263,1.97856458 5.47035263,1.97856458 C5.47035263,1.97856458 5.48422982,2.23667724 5.48422982,2.4689774 L5.48422982,5.08860603 C5.48422982,5.21766179 5.35942105,5.33381221 5.22062456,5.33381221 L4.17973684,5.33381221 C4.02696491,5.33381221 3.91591053,5.21766179 3.91591053,5.08860603 L3.91591053,2.53350529 C3.91591053,1.86251715 3.59679649,1.43663221 2.88892456,1.43663221 C2.19492982,1.43663221 1.86192632,1.90123365 1.72312982,2.24968558 L1.72312982,5.08860603 C1.72312982,5.21766179 1.59821053,5.33381221 1.45930351,5.33381221 L0.335152632,5.33381221 C0.196466667,5.33381221 0.0715473684,5.21766179 0.0715473684,5.08860603 L0.0715473684,1.44165224 L0.0715473684,0.417092308 L0.0715473684,0.376223077 C0.0715473684,0.247066346 0.196466667,0.130915705 0.335152632,0.130915705 L1.3622614,0.130915705 C1.62586667,0.130915705 1.70925263,0.19544359 1.70925263,0.376223077 L1.70925263,0.456935096 C2.04061053,0.245426282 2.52155965,0.0429322115 3.13865263,0.0429322115 C3.92978772,0.0429322115 4.48498596,0.326753045 4.94290877,0.842975 C5.1789807,0.61067484 5.90074211,0.0429322115 6.8999614,0.0429322115 Z" id="path-11"></path>
    </defs>
    <g id="UI/image/dappsbrowser" stroke="none" stroke-width="1" fill="none" fill-rule="evenodd">
        <rect fill="#FFFFFF" x="0" y="0" width="160" height="120"></rect>
        <mask id="mask-2" fill="white">
            <use xlink:href="#path-1"></use>
        </mask>
        <g id="Background"></g>
        <g id="Group-2" mask="url(#mask-2)">
            <g transform="translate(43.000000, 26.000000)">
                <path d="M5,12.9022556 L5,2 L9.27501835,2 C12.7200881,2 15.1003181,4.35177229 15.1003181,7.41997852 L15.1003181,7.45112782 C15.1003181,10.519334 12.7200881,12.9022556 9.27501835,12.9022556 L5,12.9022556 Z M7.41154881,10.7373792 L9.27501835,10.7373792 C11.2481037,10.7373792 12.5791534,9.41353383 12.5791534,7.48227712 L12.5791534,7.45112782 C12.5791534,5.51987111 11.2481037,4.16487648 9.27501835,4.16487648 L7.41154881,4.16487648 L7.41154881,10.7373792 Z M19.3753364,13.0580021 C17.7937362,13.0580021 16.4940054,12.1546724 16.4940054,10.5037594 L16.4940054,10.4726101 C16.4940054,8.65037594 17.8876927,7.80934479 19.8764375,7.80934479 C20.7220455,7.80934479 21.3327624,7.94951665 21.9278199,8.15198711 L21.9278199,8.01181525 C21.9278199,7.03061224 21.317103,6.48549946 20.126988,6.48549946 C19.2187424,6.48549946 18.5767066,6.65682062 17.8093956,6.93716434 L17.2143381,5.13050483 C18.1382432,4.72556391 19.0464889,4.46079484 20.471495,4.46079484 C21.7712258,4.46079484 22.7107903,4.80343716 23.3058478,5.3952739 C23.9322241,6.01825994 24.2140935,6.93716434 24.2140935,8.05853921 L24.2140935,12.9022556 L21.9121605,12.9022556 L21.9121605,11.9989259 C21.3327624,12.6374866 20.5341326,13.0580021 19.3753364,13.0580021 Z M20.0956692,11.4226638 C21.2074872,11.4226638 21.9591387,10.8152524 21.9591387,9.95864662 L21.9591387,9.53813104 C21.5519941,9.35123523 21.0195743,9.22663802 20.4401762,9.22663802 C19.4223147,9.22663802 18.7959383,9.63157895 18.7959383,10.3791622 L18.7959383,10.4103115 C18.7959383,11.0488722 19.3283582,11.4226638 20.0956692,11.4226638 Z M26.2654759,15.3941998 L26.2654759,4.55424275 L28.6457059,4.55424275 L28.6457059,5.75349087 C29.225104,4.97475832 30.0237338,4.39849624 31.260827,4.39849624 C33.218253,4.39849624 35.0817225,5.92481203 35.0817225,8.71267454 L35.0817225,8.74382385 C35.0817225,11.5316864 33.2495718,13.0580021 31.260827,13.0580021 C29.992415,13.0580021 29.2094446,12.4817401 28.6457059,11.8120301 L28.6457059,15.3941998 L26.2654759,15.3941998 Z M30.6501101,11.0488722 C31.7619281,11.0488722 32.7014925,10.1455424 32.7014925,8.74382385 L32.7014925,8.71267454 C32.7014925,7.32653061 31.7619281,6.40762621 30.6501101,6.40762621 C29.5382921,6.40762621 28.6143871,7.32653061 28.6143871,8.71267454 L28.6143871,8.74382385 C28.6143871,10.1299678 29.5382921,11.0488722 30.6501101,11.0488722 Z M36.8355762,15.3941998 L36.8355762,4.55424275 L39.2158062,4.55424275 L39.2158062,5.75349087 C39.7952043,4.97475832 40.5938341,4.39849624 41.8309273,4.39849624 C43.7883533,4.39849624 45.6518229,5.92481203 45.6518229,8.71267454 L45.6518229,8.74382385 C45.6518229,11.5316864 43.8196721,13.0580021 41.8309273,13.0580021 C40.5625153,13.0580021 39.7795449,12.4817401 39.2158062,11.8120301 L39.2158062,15.3941998 L36.8355762,15.3941998 Z M41.2202104,11.0488722 C42.3320284,11.0488722 43.2715929,10.1455424 43.2715929,8.74382385 L43.2715929,8.71267454 C43.2715929,7.32653061 42.3320284,6.40762621 41.2202104,6.40762621 C40.1083925,6.40762621 39.1844874,7.32653061 39.1844874,8.71267454 L39.1844874,8.74382385 C39.1844874,10.1299678 40.1083925,11.0488722 41.2202104,11.0488722 Z M50.3496452,13.0580021 C49.1751896,13.0580021 47.8597994,12.6686359 46.7479814,11.7964554 L47.7658429,10.2389903 C48.6740886,10.8931257 49.6293125,11.235768 50.4122828,11.235768 C51.1012968,11.235768 51.414485,10.9865736 51.414485,10.612782 L51.414485,10.5816327 C51.414485,10.0676692 50.6001957,9.89634801 49.6762907,9.6160043 C48.5018351,9.27336198 47.1707854,8.72824919 47.1707854,7.1084855 L47.1707854,7.0773362 C47.1707854,5.37969925 48.5488133,4.42964554 50.2400294,4.42964554 C51.3048691,4.42964554 52.4636653,4.78786251 53.3719109,5.3952739 L52.4636653,7.03061224 C51.6337167,6.54779807 50.803768,6.2518797 50.1930511,6.2518797 C49.613653,6.2518797 49.3161243,6.50107411 49.3161243,6.82814178 L49.3161243,6.85929108 C49.3161243,7.32653061 50.1147541,7.54457573 51.0229998,7.85606874 C52.1974553,8.24543502 53.5598238,8.80612245 53.5598238,10.3324382 L53.5598238,10.3635875 C53.5598238,12.216971 52.1661365,13.0580021 50.3496452,13.0580021 Z M5,30.8131042 L5,19.9108485 L10.0893076,19.9108485 C11.3420602,19.9108485 12.3286029,20.2534909 12.9549792,20.8764769 C13.4560803,21.3748657 13.7066308,21.9822771 13.7066308,22.7298604 L13.7066308,22.7610097 C13.7066308,23.9914071 13.0489356,24.6766917 12.2659653,25.112782 C13.5343773,25.5955961 14.3173477,26.3276047 14.3173477,27.7916219 L14.3173477,27.8227712 C14.3173477,29.8163265 12.6887693,30.8131042 10.2145828,30.8131042 L5,30.8131042 Z M7.34891118,24.3184748 L9.5725471,24.3184748 C10.6373868,24.3184748 11.3107414,23.9758324 11.3107414,23.1659506 L11.3107414,23.1348013 C11.3107414,22.4183673 10.7470027,22.0134264 9.72914118,22.0134264 L7.34891118,22.0134264 L7.34891118,24.3184748 Z M7.34891118,28.7105263 L10.2145828,28.7105263 C11.2794226,28.7105263 11.9214583,28.3367347 11.9214583,27.5268528 L11.9214583,27.4957035 C11.9214583,26.763695 11.373379,26.3120301 10.1362858,26.3120301 L7.34891118,26.3120301 L7.34891118,28.7105263 Z M16.055542,30.8131042 L16.055542,22.4650913 L18.435772,22.4650913 L18.435772,24.1471536 C18.9212136,22.9946294 19.704184,22.2470462 21.1135307,22.3093448 L21.1135307,24.7857143 L20.9882554,24.7857143 C19.4066552,24.7857143 18.435772,25.735768 18.435772,27.7293233 L18.435772,30.8131042 L16.055542,30.8131042 Z M26.7195987,31 C24.120137,31 22.1940299,29.0843179 22.1940299,26.6858217 L22.1940299,26.6546724 C22.1940299,24.2561762 24.1357964,22.3093448 26.7509175,22.3093448 C29.3503793,22.3093448 31.2764864,24.2250269 31.2764864,26.6235231 L31.2764864,26.6546724 C31.2764864,29.0531686 29.3347198,31 26.7195987,31 Z M26.7509175,28.9597207 C28.113286,28.9597207 28.9275752,27.9162191 28.9275752,26.6858217 L28.9275752,26.6546724 C28.9275752,25.424275 28.034989,24.3496241 26.7195987,24.3496241 C25.3572302,24.3496241 24.542941,25.3931257 24.542941,26.6235231 L24.542941,26.6546724 C24.542941,27.8850698 25.4355273,28.9597207 26.7509175,28.9597207 Z M34.8938096,30.8754028 L32.3100073,22.4650913 L34.7215562,22.4650913 L36.0682652,27.5268528 L37.6498654,22.433942 L39.7012479,22.433942 L41.2985075,27.5424275 L42.6765354,22.4650913 L45.0411059,22.4650913 L42.4259848,30.8754028 L40.280646,30.8754028 L38.6677269,25.7513426 L37.0234891,30.8754028 L34.8938096,30.8754028 Z M49.4257402,30.9688507 C48.2512846,30.9688507 46.9358943,30.5794844 45.8240763,29.707304 L46.8419379,28.1498389 C47.7501835,28.8039742 48.7054074,29.1466165 49.4883778,29.1466165 C50.1773917,29.1466165 50.4905799,28.8974221 50.4905799,28.5236305 L50.4905799,28.4924812 C50.4905799,27.9785177 49.6762907,27.8071966 48.7523856,27.5268528 C47.57793,27.1842105 46.2468804,26.6390977 46.2468804,25.019334 L46.2468804,24.9881847 C46.2468804,23.2905478 47.6249082,22.3404941 49.3161243,22.3404941 C50.380964,22.3404941 51.5397602,22.6987111 52.4480059,23.3061224 L51.5397602,24.9414608 C50.7098116,24.4586466 49.879863,24.1627282 49.2691461,24.1627282 C48.689748,24.1627282 48.3922192,24.4119227 48.3922192,24.7389903 L48.3922192,24.7701396 C48.3922192,25.2373792 49.190849,25.4554243 50.0990947,25.7669173 C51.2735503,26.1562836 52.6359188,26.716971 52.6359188,28.2432868 L52.6359188,28.2744361 C52.6359188,30.1278195 51.2422315,30.9688507 49.4257402,30.9688507 Z M58.3202838,31 C55.7991192,31 53.9356496,29.2400644 53.9356496,26.6858217 L53.9356496,26.6546724 C53.9356496,24.2717508 55.6425251,22.3093448 58.0853927,22.3093448 C60.8884267,22.3093448 62.1724982,24.4742213 62.1724982,26.8415682 C62.1724982,27.028464 62.1568388,27.2465091 62.1411793,27.4645542 L56.3002202,27.4645542 C56.5351113,28.5392052 57.2867629,29.0998926 58.3516026,29.0998926 C59.1502324,29.0998926 59.7296305,28.8506982 60.3873257,28.2432868 L61.7496942,29.4425349 C60.9667238,30.4081633 59.8392464,31 58.3202838,31 Z M56.2689014,25.9849624 L59.8549058,25.9849624 C59.7139711,24.9258861 59.0875948,24.2094522 58.0853927,24.2094522 C57.09885,24.2094522 56.4568143,24.9103115 56.2689014,25.9849624 Z M63.9420113,30.8131042 L63.9420113,22.4650913 L66.3222413,22.4650913 L66.3222413,24.1471536 C66.8076829,22.9946294 67.5906533,22.2470462 69,22.3093448 L69,24.7857143 L68.8747247,24.7857143 C67.2931245,24.7857143 66.3222413,25.735768 66.3222413,27.7293233 L66.3222413,30.8131042 L63.9420113,30.8131042 Z" id="Dapps-Browser" fill="#0E2830"></path>
                <g id="Group" stroke-width="1" fill="none" transform="translate(19.000000, 40.000000)">
                    <g id="Group-9">
                        <mask id="mask-4" fill="white">
                            <use xlink:href="#path-3"></use>
                        </mask>
                        <g id="Clip-8"></g>
                        <polygon id="Fill-7" fill="#111111" mask="url(#mask-4)" points="-0.720133333 10.788701 9.30824644 10.788701 9.30824644 -0.82079284 -0.720133333 -0.82079284"></polygon>
                    </g>
                    <g id="Group-12" transform="translate(6.611111, 4.615385)">
                        <mask id="mask-6" fill="white">
                            <use xlink:href="#path-5"></use>
                        </mask>
                        <g id="Clip-11"></g>
                        <polygon id="Fill-10" fill="#111111" mask="url(#mask-6)" points="-0.725925926 6.1025641 6.17037037 6.1025641 6.17037037 -0.717948718 -0.725925926 -0.717948718"></polygon>
                    </g>
                    <g id="Group-15" transform="translate(12.638889, 4.615385)">
                        <mask id="mask-8" fill="white">
                            <use xlink:href="#path-7"></use>
                        </mask>
                        <g id="Clip-14"></g>
                        <polygon id="Fill-13" fill="#111111" mask="url(#mask-8)" points="-0.311111111 5.98290598 6.53333333 5.98290598 6.53333333 -0.598290598 -0.311111111 -0.598290598"></polygon>
                    </g>
                    <g id="Group-18" transform="translate(19.211111, 4.615385)">
                        <mask id="mask-10" fill="white">
                            <use xlink:href="#path-9"></use>
                        </mask>
                        <g id="Clip-17"></g>
                        <polygon id="Fill-16" fill="#111111" mask="url(#mask-10)" points="-0.604938272 5.98290598 6.04938272 5.98290598 6.04938272 -0.598290598 -0.604938272 -0.598290598"></polygon>
                    </g>
                    <g id="Group-21" transform="translate(25.511111, 4.615385)">
                        <mask id="mask-12" fill="white">
                            <use xlink:href="#path-11"></use>
                        </mask>
                        <g id="Clip-20"></g>
                        <polygon id="Fill-19" fill="#111111" mask="url(#mask-12)" points="-0.768612281 6.10127157 10.1688828 6.10127157 10.1688828 -0.724527147 -0.768612281 -0.724527147"></polygon>
                    </g>
                </g>
                <path d="M7.23037975,50.4580067 C6.41012658,50.4580067 5.90379747,50.0851064 5.53924051,49.6517357 L5.53924051,50.3572228 L4,50.3572228 L4,43 L5.53924051,43 L5.53924051,45.731243 C5.91392405,45.2273236 6.43037975,44.8544233 7.23037975,44.8544233 C8.49620253,44.8544233 9.70126582,45.8421053 9.70126582,47.6461366 L9.70126582,47.6662934 C9.70126582,49.4703247 8.5164557,50.4580067 7.23037975,50.4580067 Z M6.83544304,49.1578947 C7.55443038,49.1578947 8.16202532,48.5733483 8.16202532,47.6662934 L8.16202532,47.6461366 C8.16202532,46.7491601 7.55443038,46.1545353 6.83544304,46.1545353 C6.1164557,46.1545353 5.51898734,46.7491601 5.51898734,47.6461366 L5.51898734,47.6662934 C5.51898734,48.5632699 6.1164557,49.1578947 6.83544304,49.1578947 Z M12.1316456,52 C11.5746835,52 11.1594937,51.8589026 10.764557,51.6270997 L11.2810127,50.518477 C11.4835443,50.6394177 11.7367089,50.7301232 11.9392405,50.7301232 C12.2025316,50.7301232 12.3443038,50.6494961 12.4759494,50.3773796 L10.3493671,44.9552072 L11.9797468,44.9552072 L13.2151899,48.6338186 L14.4,44.9552072 L16,44.9552072 L13.9139241,50.4882419 C13.4987342,51.5867861 13.0531646,52 12.1316456,52 Z" id="by" fill="#FF9002"></path>
                <rect id="Rectangle" fill-opacity="0.7" fill="#FFFFFF" x="0" y="0" width="70" height="54"></rect>
            </g>
        </g>
        <text id="Comming-Soon…" mask="url(#mask-2)" font-family="AvenirNext-DemiBold, Avenir Next" font-size="16" font-weight="500" fill="#51ADCB">
            <tspan x="18" y="103">Comming Soon…</tspan>
        </text>
    </g>
</svg>