<?xml version="1.0" encoding="UTF-8"?>
<svg width="109px" height="16px" viewBox="0 0 109 16" version="1.1" xmlns="http://www.w3.org/2000/svg" xmlns:xlink="http://www.w3.org/1999/xlink">
    <!-- Generator: Sketch 52.2 (67145) - http://www.bohemiancoding.com/sketch -->
    <title>Coming Soon !</title>
    <desc>Created with Sketch.</desc>
    <g id="Symbols" stroke="none" stroke-width="1" fill="none" fill-rule="evenodd">
        <g id="UI/image/yenomforweb" transform="translate(-18.000000, -94.000000)" fill="#51ADCB" stroke="#51ADCB" stroke-width="0.25">
            <g id="Group-2" transform="translate(12.000000, 41.000000)">
                <path d="M15.424,56.328 C15.1253318,55.9226646 14.7360024,55.6266676 14.256,55.44 C13.7759976,55.2533324 13.306669,55.16 12.848,55.16 C12.2613304,55.16 11.7280024,55.2666656 11.248,55.48 C10.7679976,55.6933344 10.3546684,55.9866648 10.008,56.36 C9.6613316,56.7333352 9.3946676,57.1706642 9.208,57.672 C9.0213324,58.1733358 8.928,58.7173304 8.928,59.304 C8.928,59.9226698 9.01866576,60.4879974 9.2,61 C9.38133424,61.5120026 9.63999832,61.9519982 9.976,62.32 C10.3120017,62.6880018 10.7146643,62.9733323 11.184,63.176 C11.6533357,63.3786677 12.1813304,63.48 12.768,63.48 C13.376003,63.48 13.9146643,63.3600012 14.384,63.12 C14.8533357,62.8799988 15.2319986,62.5626686 15.52,62.168 L17.136,63.304 C16.6346642,63.9333365 16.021337,64.4213316 15.296,64.768 C14.570663,65.1146684 13.7226715,65.288 12.752,65.288 C11.8666622,65.288 11.053337,65.1413348 10.312,64.848 C9.57066296,64.5546652 8.933336,64.1440026 8.4,63.616 C7.866664,63.0879974 7.45066816,62.4586703 7.152,61.728 C6.85333184,60.9973297 6.704,60.1893378 6.704,59.304 C6.704,58.3973288 6.86133176,57.5786703 7.176,56.848 C7.49066824,56.1173297 7.92266392,55.4960026 8.472,54.984 C9.02133608,54.4719974 9.6693296,54.0773347 10.416,53.8 C11.1626704,53.5226653 11.973329,53.384 12.848,53.384 C13.2106685,53.384 13.5893314,53.4186663 13.984,53.488 C14.3786686,53.5573337 14.7573315,53.6639993 15.12,53.808 C15.4826685,53.9520007 15.8239984,54.1306656 16.144,54.344 C16.4640016,54.5573344 16.7359989,54.8133318 16.96,55.112 L15.424,56.328 Z M17.84,61.128 C17.84,60.519997 17.9493322,59.9680025 18.168,59.472 C18.3866678,58.9759975 18.6826648,58.5520018 19.056,58.2 C19.4293352,57.8479982 19.8719974,57.576001 20.384,57.384 C20.8960026,57.191999 21.4399971,57.096 22.016,57.096 C22.5920029,57.096 23.1359974,57.191999 23.648,57.384 C24.1600026,57.576001 24.6026648,57.8479982 24.976,58.2 C25.3493352,58.5520018 25.6453322,58.9759975 25.864,59.472 C26.0826678,59.9680025 26.192,60.519997 26.192,61.128 C26.192,61.736003 26.0826678,62.2906642 25.864,62.792 C25.6453322,63.2933358 25.3493352,63.7226649 24.976,64.08 C24.6026648,64.4373351 24.1600026,64.7173323 23.648,64.92 C23.1359974,65.1226677 22.5920029,65.224 22.016,65.224 C21.4399971,65.224 20.8960026,65.1226677 20.384,64.92 C19.8719974,64.7173323 19.4293352,64.4373351 19.056,64.08 C18.6826648,63.7226649 18.3866678,63.2933358 18.168,62.792 C17.9493322,62.2906642 17.84,61.736003 17.84,61.128 Z M19.792,61.128 C19.792,61.4266682 19.8373329,61.7253318 19.928,62.024 C20.0186671,62.3226682 20.1546658,62.5893322 20.336,62.824 C20.5173342,63.0586678 20.7466653,63.2506659 21.024,63.4 C21.3013347,63.5493341 21.6319981,63.624 22.016,63.624 C22.4000019,63.624 22.7306653,63.5493341 23.008,63.4 C23.2853347,63.2506659 23.5146658,63.0586678 23.696,62.824 C23.8773342,62.5893322 24.0133329,62.3226682 24.104,62.024 C24.1946671,61.7253318 24.24,61.4266682 24.24,61.128 C24.24,60.8293318 24.1946671,60.5333348 24.104,60.24 C24.0133329,59.9466652 23.8773342,59.6826678 23.696,59.448 C23.5146658,59.2133322 23.2853347,59.0240007 23.008,58.88 C22.7306653,58.7359993 22.4000019,58.664 22.016,58.664 C21.6319981,58.664 21.3013347,58.7359993 21.024,58.88 C20.7466653,59.0240007 20.5173342,59.2133322 20.336,59.448 C20.1546658,59.6826678 20.0186671,59.9466652 19.928,60.24 C19.8373329,60.5333348 19.792,60.8293318 19.792,61.128 Z M37.216,57.096 C37.7173358,57.096 38.1466649,57.1839991 38.504,57.36 C38.8613351,57.5360009 39.1546655,57.7679986 39.384,58.056 C39.6133345,58.3440014 39.7813328,58.6746648 39.888,59.048 C39.9946672,59.4213352 40.048,59.8053314 40.048,60.2 L40.048,65 L38.128,65 L38.128,60.744 C38.128,60.5199989 38.1120002,60.2853346 38.08,60.04 C38.0479998,59.7946654 37.9786672,59.5733343 37.872,59.376 C37.7653328,59.1786657 37.6186676,59.0160006 37.432,58.888 C37.2453324,58.7599994 36.9973349,58.696 36.688,58.696 C36.3893318,58.696 36.1333344,58.7599994 35.92,58.888 C35.7066656,59.0160006 35.5306674,59.1813323 35.392,59.384 C35.2533326,59.5866677 35.1520003,59.8133321 35.088,60.064 C35.0239997,60.3146679 34.992,60.5626654 34.992,60.808 L34.992,65 L33.072,65 L33.072,60.36 C33.072,59.8799976 32.9573345,59.4826682 32.728,59.168 C32.4986655,58.8533318 32.1386691,58.696 31.648,58.696 C31.3599986,58.696 31.1093344,58.7573327 30.896,58.88 C30.6826656,59.0026673 30.509334,59.159999 30.376,59.352 C30.242666,59.544001 30.1413337,59.7653321 30.072,60.016 C30.0026663,60.2666679 29.968,60.5199987 29.968,60.776 L29.968,65 L28.048,65 L28.048,57.32 L29.872,57.32 L29.872,58.552 L29.904,58.552 C29.9893338,58.359999 30.1039993,58.1786675 30.248,58.008 C30.3920007,57.8373325 30.5626657,57.6826674 30.76,57.544 C30.9573343,57.4053326 31.1839987,57.2960004 31.44,57.216 C31.6960013,57.1359996 31.9786651,57.096 32.288,57.096 C32.8853363,57.096 33.3813314,57.229332 33.776,57.496 C34.1706686,57.762668 34.4746656,58.1146645 34.688,58.552 C34.9440013,58.0826643 35.2853312,57.7226679 35.712,57.472 C36.1386688,57.2213321 36.6399971,57.096 37.216,57.096 Z M42.32,57.32 L44.24,57.32 L44.24,65 L42.32,65 L42.32,57.32 Z M42.048,54.712 C42.048,54.4026651 42.1626655,54.1333345 42.392,53.904 C42.6213345,53.6746655 42.9119982,53.56 43.264,53.56 C43.6160018,53.56 43.9119988,53.6693322 44.152,53.888 C44.3920012,54.1066678 44.512,54.3813317 44.512,54.712 C44.512,55.0426683 44.3920012,55.3173322 44.152,55.536 C43.9119988,55.7546678 43.6160018,55.864 43.264,55.864 C42.9119982,55.864 42.6213345,55.7493345 42.392,55.52 C42.1626655,55.2906655 42.048,55.0213349 42.048,54.712 Z M46.576,57.32 L48.4,57.32 L48.4,58.552 L48.432,58.552 C48.6026675,58.1679981 48.8986646,57.8293348 49.32,57.536 C49.7413354,57.2426652 50.2399971,57.096 50.816,57.096 C51.3173358,57.096 51.7466649,57.1839991 52.104,57.36 C52.4613351,57.5360009 52.7546655,57.7679986 52.984,58.056 C53.2133345,58.3440014 53.3813328,58.6746648 53.488,59.048 C53.5946672,59.4213352 53.648,59.8053314 53.648,60.2 L53.648,65 L51.728,65 L51.728,60.744 C51.728,60.5199989 51.7120002,60.2853346 51.68,60.04 C51.6479998,59.7946654 51.5786672,59.5733343 51.472,59.376 C51.3653328,59.1786657 51.2186676,59.0160006 51.032,58.888 C50.8453324,58.7599994 50.5973349,58.696 50.288,58.696 C49.9786651,58.696 49.7120011,58.7573327 49.488,58.88 C49.2639989,59.0026673 49.0800007,59.159999 48.936,59.352 C48.7919993,59.544001 48.682667,59.7653321 48.608,60.016 C48.533333,60.2666679 48.496,60.5199987 48.496,60.776 L48.496,65 L46.576,65 L46.576,57.32 Z M63.696,57.32 L63.696,64.312 C63.696,65.0053368 63.6106675,65.6319972 63.44,66.192 C63.2693325,66.7520028 63.0053351,67.2266647 62.648,67.616 C62.2906649,68.0053353 61.8400027,68.3066656 61.296,68.52 C60.7519973,68.7333344 60.1066704,68.84 59.36,68.84 C59.0506651,68.84 58.7226684,68.8133336 58.376,68.76 C58.0293316,68.7066664 57.6880017,68.6266672 57.352,68.52 C57.0159983,68.4133328 56.6933349,68.2800008 56.384,68.12 C56.0746651,67.9599992 55.7973346,67.7786677 55.552,67.576 L56.656,66.088 C57.0293352,66.4400018 57.4506643,66.7093324 57.92,66.896 C58.3893357,67.0826676 58.8639976,67.176 59.344,67.176 C59.802669,67.176 60.1893318,67.109334 60.504,66.976 C60.8186682,66.842666 61.0693324,66.6586678 61.256,66.424 C61.4426676,66.1893322 61.5759996,65.9120016 61.656,65.592 C61.7360004,65.2719984 61.776,64.9200019 61.776,64.536 L61.776,63.976 L61.744,63.976 C61.4666653,64.3493352 61.1120022,64.6346657 60.68,64.832 C60.2479978,65.0293343 59.765336,65.128 59.232,65.128 C58.6559971,65.128 58.1333357,65.0213344 57.664,64.808 C57.1946643,64.5946656 56.797335,64.3066685 56.472,63.944 C56.146665,63.5813315 55.8933342,63.1573358 55.712,62.672 C55.5306658,62.1866642 55.44,61.6720027 55.44,61.128 C55.44,60.5733306 55.5279991,60.0506691 55.704,59.56 C55.8800009,59.0693309 56.130665,58.6426685 56.456,58.28 C56.781335,57.9173315 57.1759977,57.6293344 57.64,57.416 C58.1040023,57.2026656 58.6239971,57.096 59.2,57.096 C59.7440027,57.096 60.2506643,57.2079989 60.72,57.432 C61.1893357,57.6560011 61.5626653,58.0026643 61.84,58.472 L61.872,58.472 L61.872,57.32 L63.696,57.32 Z M59.6,58.664 C59.2479982,58.664 58.9360014,58.7279994 58.664,58.856 C58.3919986,58.9840006 58.1626676,59.1573322 57.976,59.376 C57.7893324,59.5946678 57.6453338,59.8533318 57.544,60.152 C57.4426662,60.4506682 57.392,60.770665 57.392,61.112 C57.392,61.4213349 57.4426662,61.7199986 57.544,62.008 C57.6453338,62.2960014 57.7893324,62.5546655 57.976,62.784 C58.1626676,63.0133345 58.3919986,63.1973326 58.664,63.336 C58.9360014,63.4746674 59.242665,63.544 59.584,63.544 C59.9360018,63.544 60.2533319,63.477334 60.536,63.344 C60.8186681,63.210666 61.0586657,63.0320011 61.256,62.808 C61.4533343,62.5839989 61.6053328,62.3253348 61.712,62.032 C61.8186672,61.7386652 61.872,61.4320016 61.872,61.112 C61.872,60.7813317 61.8186672,60.4666682 61.712,60.168 C61.6053328,59.8693318 61.4533343,59.6080011 61.256,59.384 C61.0586657,59.1599989 60.8213347,58.9840006 60.544,58.856 C60.2666653,58.7279994 59.9520018,58.664 59.6,58.664 Z M75.872,56.04 C75.6586656,55.7626653 75.3573353,55.5306676 74.968,55.344 C74.5786647,55.1573324 74.1866686,55.064 73.792,55.064 C73.5573322,55.064 73.3226678,55.093333 73.088,55.152 C72.8533322,55.210667 72.640001,55.3013327 72.448,55.424 C72.255999,55.5466673 72.0986673,55.7066657 71.976,55.904 C71.8533327,56.1013343 71.792,56.3386653 71.792,56.616 C71.792,56.8720013 71.8453328,57.0906658 71.952,57.272 C72.0586672,57.4533342 72.2053324,57.6079994 72.392,57.736 C72.5786676,57.8640006 72.805332,57.9759995 73.072,58.072 C73.338668,58.1680005 73.6319984,58.2639995 73.952,58.36 C74.3146685,58.4773339 74.6906647,58.6106659 75.08,58.76 C75.4693353,58.9093341 75.826665,59.1066654 76.152,59.352 C76.477335,59.5973346 76.743999,59.9066648 76.952,60.28 C77.160001,60.6533352 77.264,61.1173306 77.264,61.672 C77.264,62.280003 77.1520011,62.8106644 76.928,63.264 C76.7039989,63.7173356 76.4053352,64.0933318 76.032,64.392 C75.6586648,64.6906682 75.2213358,64.9146659 74.72,65.064 C74.2186642,65.2133341 73.6906694,65.288 73.136,65.288 C72.3999963,65.288 71.6800035,65.1520014 70.976,64.88 C70.2719965,64.6079986 69.6960022,64.205336 69.248,63.672 L70.688,62.328 C70.9653347,62.7120019 71.3359977,63.0159989 71.8,63.24 C72.2640023,63.4640011 72.7199978,63.576 73.168,63.576 C73.4026678,63.576 73.6426654,63.546667 73.888,63.488 C74.1333346,63.429333 74.3546657,63.3306674 74.552,63.192 C74.7493343,63.0533326 74.9093327,62.880001 75.032,62.672 C75.1546673,62.463999 75.216,62.2053349 75.216,61.896 C75.216,61.5973318 75.1466674,61.3493343 75.008,61.152 C74.8693326,60.9546657 74.6826678,60.7840007 74.448,60.64 C74.2133322,60.4959993 73.9360016,60.3706672 73.616,60.264 L72.608,59.928 C72.266665,59.8213328 71.925335,59.6933341 71.584,59.544 C71.242665,59.3946659 70.9360014,59.1973346 70.664,58.952 C70.3919986,58.7066654 70.1706675,58.4053351 70,58.048 C69.8293325,57.6906649 69.744,57.245336 69.744,56.712 C69.744,56.1359971 69.8639988,55.6400021 70.104,55.224 C70.3440012,54.8079979 70.6586647,54.4640014 71.048,54.192 C71.4373353,53.9199986 71.8799975,53.717334 72.376,53.584 C72.8720025,53.450666 73.3759974,53.384 73.888,53.384 C74.4640029,53.384 75.047997,53.4853323 75.64,53.688 C76.232003,53.8906677 76.7466645,54.1946646 77.184,54.6 L75.872,56.04 Z M78.736,61.128 C78.736,60.519997 78.8453322,59.9680025 79.064,59.472 C79.2826678,58.9759975 79.5786648,58.5520018 79.952,58.2 C80.3253352,57.8479982 80.7679974,57.576001 81.28,57.384 C81.7920026,57.191999 82.3359971,57.096 82.912,57.096 C83.4880029,57.096 84.0319974,57.191999 84.544,57.384 C85.0560026,57.576001 85.4986648,57.8479982 85.872,58.2 C86.2453352,58.5520018 86.5413322,58.9759975 86.76,59.472 C86.9786678,59.9680025 87.088,60.519997 87.088,61.128 C87.088,61.736003 86.9786678,62.2906642 86.76,62.792 C86.5413322,63.2933358 86.2453352,63.7226649 85.872,64.08 C85.4986648,64.4373351 85.0560026,64.7173323 84.544,64.92 C84.0319974,65.1226677 83.4880029,65.224 82.912,65.224 C82.3359971,65.224 81.7920026,65.1226677 81.28,64.92 C80.7679974,64.7173323 80.3253352,64.4373351 79.952,64.08 C79.5786648,63.7226649 79.2826678,63.2933358 79.064,62.792 C78.8453322,62.2906642 78.736,61.736003 78.736,61.128 Z M80.688,61.128 C80.688,61.4266682 80.7333329,61.7253318 80.824,62.024 C80.9146671,62.3226682 81.0506658,62.5893322 81.232,62.824 C81.4133342,63.0586678 81.6426653,63.2506659 81.92,63.4 C82.1973347,63.5493341 82.5279981,63.624 82.912,63.624 C83.2960019,63.624 83.6266653,63.5493341 83.904,63.4 C84.1813347,63.2506659 84.4106658,63.0586678 84.592,62.824 C84.7733342,62.5893322 84.9093329,62.3226682 85,62.024 C85.0906671,61.7253318 85.136,61.4266682 85.136,61.128 C85.136,60.8293318 85.0906671,60.5333348 85,60.24 C84.9093329,59.9466652 84.7733342,59.6826678 84.592,59.448 C84.4106658,59.2133322 84.1813347,59.0240007 83.904,58.88 C83.6266653,58.7359993 83.2960019,58.664 82.912,58.664 C82.5279981,58.664 82.1973347,58.7359993 81.92,58.88 C81.6426653,59.0240007 81.4133342,59.2133322 81.232,59.448 C81.0506658,59.6826678 80.9146671,59.9466652 80.824,60.24 C80.7333329,60.5333348 80.688,60.8293318 80.688,61.128 Z M88.496,61.128 C88.496,60.519997 88.6053322,59.9680025 88.824,59.472 C89.0426678,58.9759975 89.3386648,58.5520018 89.712,58.2 C90.0853352,57.8479982 90.5279974,57.576001 91.04,57.384 C91.5520026,57.191999 92.0959971,57.096 92.672,57.096 C93.2480029,57.096 93.7919974,57.191999 94.304,57.384 C94.8160026,57.576001 95.2586648,57.8479982 95.632,58.2 C96.0053352,58.5520018 96.3013322,58.9759975 96.52,59.472 C96.7386678,59.9680025 96.848,60.519997 96.848,61.128 C96.848,61.736003 96.7386678,62.2906642 96.52,62.792 C96.3013322,63.2933358 96.0053352,63.7226649 95.632,64.08 C95.2586648,64.4373351 94.8160026,64.7173323 94.304,64.92 C93.7919974,65.1226677 93.2480029,65.224 92.672,65.224 C92.0959971,65.224 91.5520026,65.1226677 91.04,64.92 C90.5279974,64.7173323 90.0853352,64.4373351 89.712,64.08 C89.3386648,63.7226649 89.0426678,63.2933358 88.824,62.792 C88.6053322,62.2906642 88.496,61.736003 88.496,61.128 Z M90.448,61.128 C90.448,61.4266682 90.4933329,61.7253318 90.584,62.024 C90.6746671,62.3226682 90.8106658,62.5893322 90.992,62.824 C91.1733342,63.0586678 91.4026653,63.2506659 91.68,63.4 C91.9573347,63.5493341 92.2879981,63.624 92.672,63.624 C93.0560019,63.624 93.3866653,63.5493341 93.664,63.4 C93.9413347,63.2506659 94.1706658,63.0586678 94.352,62.824 C94.5333342,62.5893322 94.6693329,62.3226682 94.76,62.024 C94.8506671,61.7253318 94.896,61.4266682 94.896,61.128 C94.896,60.8293318 94.8506671,60.5333348 94.76,60.24 C94.6693329,59.9466652 94.5333342,59.6826678 94.352,59.448 C94.1706658,59.2133322 93.9413347,59.0240007 93.664,58.88 C93.3866653,58.7359993 93.0560019,58.664 92.672,58.664 C92.2879981,58.664 91.9573347,58.7359993 91.68,58.88 C91.4026653,59.0240007 91.1733342,59.2133322 90.992,59.448 C90.8106658,59.6826678 90.6746671,59.9466652 90.584,60.24 C90.4933329,60.5333348 90.448,60.8293318 90.448,61.128 Z M98.704,57.32 L100.528,57.32 L100.528,58.552 L100.56,58.552 C100.730668,58.1679981 101.026665,57.8293348 101.448,57.536 C101.869335,57.2426652 102.367997,57.096 102.944,57.096 C103.445336,57.096 103.874665,57.1839991 104.232,57.36 C104.589335,57.5360009 104.882666,57.7679986 105.112,58.056 C105.341334,58.3440014 105.509333,58.6746648 105.616,59.048 C105.722667,59.4213352 105.776,59.8053314 105.776,60.2 L105.776,65 L103.856,65 L103.856,60.744 C103.856,60.5199989 103.84,60.2853346 103.808,60.04 C103.776,59.7946654 103.706667,59.5733343 103.6,59.376 C103.493333,59.1786657 103.346668,59.0160006 103.16,58.888 C102.973332,58.7599994 102.725335,58.696 102.416,58.696 C102.106665,58.696 101.840001,58.7573327 101.616,58.88 C101.391999,59.0026673 101.208001,59.159999 101.064,59.352 C100.919999,59.544001 100.810667,59.7653321 100.736,60.016 C100.661333,60.2666679 100.624,60.5199987 100.624,60.776 L100.624,65 L98.704,65 L98.704,57.32 Z M114.544,61.448 L112.624,61.448 L112.624,53.672 L114.544,53.672 L114.544,61.448 Z M112.304,63.88 C112.304,63.538665 112.429332,63.2453346 112.68,63 C112.930668,62.7546654 113.231998,62.632 113.584,62.632 C113.925335,62.632 114.223999,62.7493322 114.48,62.984 C114.736001,63.2186678 114.864,63.506665 114.864,63.848 C114.864,64.189335 114.738668,64.4826654 114.488,64.728 C114.237332,64.9733346 113.936002,65.096 113.584,65.096 C113.413332,65.096 113.250667,65.0640003 113.096,65 C112.941333,64.9359997 112.805334,64.8506672 112.688,64.744 C112.570666,64.6373328 112.477334,64.5093341 112.408,64.36 C112.338666,64.2106659 112.304,64.0506675 112.304,63.88 Z" id="Coming-Soon-!"></path>
            </g>
        </g>
    </g>
</svg>