<?xml version="1.0" encoding="UTF-8"?>
<svg width="160px" height="120px" viewBox="0 0 160 120" version="1.1" xmlns="http://www.w3.org/2000/svg" xmlns:xlink="http://www.w3.org/1999/xlink">
    <!-- Generator: Sketch 52.2 (67145) - http://www.bohemiancoding.com/sketch -->
    <title>UI/image/yenom</title>
    <desc>Created with Sketch.</desc>
    <defs>
        <rect id="path-1" x="0" y="0" width="160" height="120"></rect>
        <path d="M21.4597271,23.9635259 L2.38475181,23.9635259 C1.07362221,23.9635259 0.000669468988,22.8943598 0.000669468988,21.5873447 L0.000669468988,2.57943529 C0.000669468988,1.27267482 1.07362221,0.203508706 2.38475181,0.203508706 L21.4597271,0.203508706 C22.7711153,0.203508706 23.8440706,1.27267482 23.8440706,2.57943529 L23.8440706,21.5873447 C23.8440706,22.8943598 22.7711153,23.9635259 21.4597271,23.9635259 Z" id="path-3"></path>
        <path d="M0,8.54589789 L0,0.0423 L0.0006179712,0.0423 C0.0006179712,0.250064211 0.0222469722,0.460983158 0.0683373459,0.671611579 C0.333807529,1.88690211 1.30968734,2.70102 2.38444292,2.70044526 L2.38495793,2.70044526 L21.4596791,2.70044526 C22.7710645,2.70044526 23.8440198,3.89622632 23.8440198,5.35772842 L23.8440198,21.3017217 C23.8440198,22.7563443 22.7815651,23.947555 21.4789602,23.9592066 L2.36567678,23.9592066 C1.06307021,23.947555 0.0006179712,22.7563443 0.0006179712,21.3017217 L0.0006179712,8.54589789 L0,8.54589789 Z M18.5333252,15.7053568 C19.7303887,15.7053568 20.7008584,14.6235 20.7008584,13.2894063 C20.7008584,11.9553126 19.7303887,10.8737463 18.5333252,10.8737463 C17.3362616,10.8737463 16.365792,11.9553126 16.365792,13.2894063 C16.365792,14.6235 17.3362616,15.7053568 18.5333252,15.7053568 Z" id="path-5"></path>
        <path d="M19.1768,0.0571674074 C19.7018857,0.0571674074 19.9644286,0.601668148 19.7018857,1.04332148 L12.1217714,12.3693985 L12.1217714,23.2195363 C12.1217714,23.5599529 11.8264286,23.8658151 11.4982857,23.8658151 L8.4794,23.8658151 C8.11845714,23.8658151 7.85588571,23.5599529 7.85588571,23.2195363 L7.85588571,12.40368 L0.374257143,1.04332148 C0.111714286,0.601668148 0.374257143,0.0571674074 0.899057143,0.0571674074 L4.24634286,0.0571674074 C4.50888571,0.0571674074 4.67294286,0.227235556 4.77114286,0.363297778 L10.0215143,8.18613037 L15.2719143,0.363297778 C15.3703714,0.227235556 15.5344286,0.0571674074 15.797,0.0571674074 L19.1768,0.0571674074 Z" id="path-7"></path>
        <path d="M4.71864962,5.71415005 L10.5112619,5.71415005 C10.3961745,4.39261985 9.1687839,3.28567834 7.71088937,3.28567834 C6.17657706,3.28567834 4.91048391,4.35718742 4.71864962,5.71415005 Z M7.82597678,0 C11.7776513,0 15,2.78564246 15,6.64251096 C15,6.89280876 14.9616595,7.35712915 14.923286,7.60715027 C14.8849126,7.96403797 14.5396175,8.21405591 14.1943223,8.21405591 L4.37338739,8.21405591 C4.4884748,9.67845123 5.83128192,11.3214367 8.05618451,11.3214367 C9.24549787,11.3214367 10.3581302,10.8931117 11.0486875,10.4285082 C11.432027,10.2142058 11.7776513,10.1427748 12.0459033,10.4285082 L13.6188853,12.1072092 C13.8874335,12.3572271 13.9641804,12.7498297 13.5805118,13.0355656 C12.3144516,14.1427921 10.3581302,15 7.86435022,15 C3.26075509,15 0,11.6071701 0,7.50000064 C0,3.46426531 3.26075509,0 7.82597678,0 Z" id="path-9"></path>
        <path d="M8.43988676,0 C13.1205434,0 15,3.4755874 15,7.28047285 L15,14.304824 C15,14.6707058 14.6682864,15 14.3000011,15 L11.277627,15 C10.8721993,15 10.577628,14.6707058 10.577628,14.304824 L10.577628,7.06094188 C10.577628,5.15864545 9.58248735,3.95123307 7.81328502,3.95123307 C5.89697136,3.95123307 4.71751371,5.26840934 4.34894309,6.25629394 L4.34894309,14.304824 C4.34894309,14.8170588 4.12780072,15 3.42748487,15 L0.700315857,15 C0.331713552,15 0,14.6707058 0,14.304824 L0,3.96546519 L0,1.06076899 L0,0.944901979 C0,0.578733976 0.331713552,0.249439111 0.700315857,0.249439111 L3.42748487,0.249439111 C4.12780072,0.249439111 4.34894309,0.432379996 4.34894309,0.944901979 L4.34894309,1.24109562 C5.26219325,0.630128655 6.64349323,0 8.43988676,0 Z" id="path-11"></path>
        <path d="M8.0709,11.0684719 C10.1101667,11.0684719 11.7649333,9.45437187 11.7649333,7.45394375 C11.7649333,5.4888875 10.1101667,3.90988125 8.0709,3.90988125 C5.9928,3.90988125 4.37653333,5.4888875 4.37653333,7.45394375 C4.37653333,9.45437187 5.9928,11.0684719 8.0709,11.0684719 Z M8.0709,0.119596875 C12.4188333,0.119596875 15.9593,3.48845937 15.9593,7.45394375 C15.9593,11.4896125 12.4188333,14.8584769 8.0709,14.8584769 C3.72256667,14.8584769 0.182133333,11.4896125 0.182133333,7.45394375 C0.182133333,3.48845937 3.72256667,0.119596875 8.0709,0.119596875 Z" id="path-13"></path>
        <path d="M16.2641947,0.119596875 C20.4516632,0.119596875 21.9891158,3.53468125 21.9891158,7.30899687 L21.9891158,14.1754025 C21.9891158,14.534915 21.7273447,14.8584769 21.3674711,14.8584769 L18.7177158,14.8584769 C18.3578421,14.8584769 18.0963316,14.534915 18.0963316,14.1754025 L18.0963316,7.05762187 C18.0963316,5.18844062 17.2781632,4.00204687 15.6423184,4.00204687 C13.7450211,4.00204687 12.8944026,5.51171562 12.8944026,5.51171562 C12.8944026,5.51171562 12.9271132,6.23074375 12.9271132,6.87786562 L12.9271132,14.1754025 C12.9271132,14.534915 12.6329211,14.8584769 12.3057579,14.8584769 L9.85223684,14.8584769 C9.49213158,14.8584769 9.23036053,14.534915 9.23036053,14.1754025 L9.23036053,7.05762187 C9.23036053,5.18844062 8.47816316,4.00204687 6.80960789,4.00204687 C5.17376316,4.00204687 4.38882632,5.29629375 4.06166316,6.26698125 L4.06166316,14.1754025 C4.06166316,14.534915 3.76721053,14.8584769 3.43978684,14.8584769 L0.790002632,14.8584769 C0.4631,14.8584769 0.168647368,14.534915 0.168647368,14.1754025 L0.168647368,4.01603125 L0.168647368,1.1619 L0.168647368,1.04805 C0.168647368,0.68825625 0.4631,0.36469375 0.790002632,0.36469375 L3.21104474,0.36469375 C3.8324,0.36469375 4.02895263,0.54445 4.02895263,1.04805 L4.02895263,1.27289062 C4.81001053,0.6836875 5.94367632,0.119596875 7.39825263,0.119596875 C9.26307105,0.119596875 10.5717526,0.910240625 11.6511421,2.3482875 C12.2075974,1.70116562 13.9088921,0.119596875 16.2641947,0.119596875 Z" id="path-15"></path>
    </defs>
    <g id="UI/image/yenom" stroke="none" stroke-width="1" fill="none" fill-rule="evenodd">
        <rect fill="#FFFFFF" x="0" y="0" width="160" height="120"></rect>
        <mask id="mask-2" fill="white">
            <use xlink:href="#path-1"></use>
        </mask>
        <g id="Background"></g>
        <g id="Group" mask="url(#mask-2)">
            <g transform="translate(14.000000, 38.500000)">
                <g id="Group-22" stroke-width="1" fill="none" transform="translate(5.000000, 0.000000)">
                    <g id="Group-3">
                        <mask id="mask-4" fill="white">
                            <use xlink:href="#path-3"></use>
                        </mask>
                        <g id="Clip-2"></g>
                        <polygon id="Fill-1" fill="#FFE000" mask="url(#mask-4)" points="-1.9310064 25.8952018 25.7757456 25.8952018 25.7757456 -1.72816574 -1.9310064 -1.72816574"></polygon>
                    </g>
                    <g id="Group-6" transform="translate(0.000000, 2.000000)">
                        <mask id="mask-6" fill="white">
                            <use xlink:href="#path-5"></use>
                        </mask>
                        <g id="Clip-5"></g>
                        <polygon id="Fill-4" fill="#FF9002" mask="url(#mask-6)" points="-1.93183031 26.1197195 25.7756897 26.1197195 25.7756897 -2.11812789 -1.93183031 -2.11812789"></polygon>
                    </g>
                    <g id="Group-9" transform="translate(32.000000, 1.000000)">
                        <mask id="mask-8" fill="white">
                            <use xlink:href="#path-7"></use>
                        </mask>
                        <g id="Clip-8"></g>
                        <polygon id="Fill-7" fill="#111111" mask="url(#mask-8)" points="-1.68342857 25.8928824 21.7595371 25.8928824 21.7595371 -1.96990281 -1.68342857 -1.96990281"></polygon>
                    </g>
                    <g id="Group-12" transform="translate(47.500000, 10.000000)">
                        <mask id="mask-10" fill="white">
                            <use xlink:href="#path-9"></use>
                        </mask>
                        <g id="Clip-11"></g>
                        <polygon id="Fill-10" fill="#111111" mask="url(#mask-10)" points="-2 17 17 17 17 -2 -2 -2"></polygon>
                    </g>
                    <g id="Group-15" transform="translate(65.000000, 10.000000)">
                        <mask id="mask-12" fill="white">
                            <use xlink:href="#path-11"></use>
                        </mask>
                        <g id="Clip-14"></g>
                        <polygon id="Fill-13" fill="#111111" mask="url(#mask-12)" points="-2 17 17 17 17 -2 -2 -2"></polygon>
                    </g>
                    <g id="Group-18" transform="translate(82.000000, 10.000000)">
                        <mask id="mask-14" fill="white">
                            <use xlink:href="#path-13"></use>
                        </mask>
                        <g id="Clip-17"></g>
                        <polygon id="Fill-16" fill="#111111" mask="url(#mask-14)" points="-2.09833333 16.9963994 18.2397233 16.9963994 18.2397233 -2.01832562 -2.09833333 -2.01832562"></polygon>
                    </g>
                    <g id="Group-21" transform="translate(100.000000, 10.000000)">
                        <mask id="mask-16" fill="white">
                            <use xlink:href="#path-15"></use>
                        </mask>
                        <g id="Clip-20"></g>
                        <polygon id="Fill-19" fill="#111111" mask="url(#mask-16)" points="-1.81172895 16.9963994 23.9695095 16.9963994 23.9695095 -2.01832562 -1.81172895 -2.01832562"></polygon>
                    </g>
                </g>
                <rect id="Rectangle" fill-opacity="0.7" fill="#FFFFFF" x="0" y="0" width="131" height="39"></rect>
            </g>
        </g>
        <text id="Comming-Soon…" mask="url(#mask-2)" font-family="AvenirNext-DemiBold, Avenir Next" font-size="16" font-weight="500" fill="#51ADCB">
            <tspan x="18" y="103">Comming Soon…</tspan>
        </text>
    </g>
</svg>