<?xml version="1.0" encoding="UTF-8"?>
<svg width="160px" height="120px" viewBox="0 0 160 120" version="1.1" xmlns="http://www.w3.org/2000/svg" xmlns:xlink="http://www.w3.org/1999/xlink">
    <!-- Generator: Sketch 52.2 (67145) - http://www.bohemiancoding.com/sketch -->
    <title>UI/image/yenomforweb</title>
    <desc>Created with Sketch.</desc>
    <defs>
        <rect id="path-1" x="0" y="0" width="160" height="120"></rect>
        <path d="M12.5181741,13.9787235 L1.39110522,13.9787235 C0.626279624,13.9787235 0.000390523576,13.3550432 0.000390523576,12.5926177 L0.000390523576,1.50467059 C0.000390523576,0.742393647 0.626279624,0.118713412 1.39110522,0.118713412 L12.5181741,0.118713412 C13.2831506,0.118713412 13.9090412,0.742393647 13.9090412,1.50467059 L13.9090412,12.5926177 C13.9090412,13.3550432 13.2831506,13.9787235 12.5181741,13.9787235 Z" id="path-3"></path>
        <path d="M0,4.98510711 L0,0.024675 L0.0003604832,0.024675 C0.0003604832,0.145870789 0.0129774005,0.268906842 0.0398634518,0.391773421 C0.194721059,1.10069289 0.763984282,1.575595 1.39092504,1.57525974 L1.39122546,1.57525974 L12.5181461,1.57525974 C13.2831209,1.57525974 13.9090115,2.27279868 13.9090115,3.12534158 L13.9090115,12.4260043 C13.9090115,13.2745342 13.2892463,13.9694071 12.5293934,13.9762039 L1.37997812,13.9762039 C0.62012429,13.9694071 0.0003604832,13.2745342 0.0003604832,12.4260043 L0.0003604832,4.98510711 L0,4.98510711 Z M10.8111064,9.16145816 C11.5093934,9.16145816 12.0755007,8.530375 12.0755007,7.75215368 C12.0755007,6.97393237 11.5093934,6.34301868 10.8111064,6.34301868 C10.1128193,6.34301868 9.546712,6.97393237 9.546712,7.75215368 C9.546712,8.530375 10.1128193,9.16145816 10.8111064,9.16145816 Z" id="path-5"></path>
        <path d="M10.54724,0.0333476543 C10.8360371,0.0333476543 10.9804357,0.350973086 10.8360371,0.608604198 L6.66697429,7.21548247 L6.66697429,13.5447295 C6.66697429,13.7433059 6.50453571,13.9217255 6.32405714,13.9217255 L4.66367,13.9217255 C4.46515143,13.9217255 4.32073714,13.7433059 4.32073714,13.5447295 L4.32073714,7.23548 L0.205841429,0.608604198 C0.0614428571,0.350973086 0.205841429,0.0333476543 0.494481429,0.0333476543 L2.33548857,0.0333476543 C2.47988714,0.0333476543 2.57011857,0.132554074 2.62412857,0.211923704 L5.51183286,4.77524272 L8.39955286,0.211923704 C8.45370429,0.132554074 8.54393571,0.0333476543 8.68835,0.0333476543 L10.54724,0.0333476543 Z" id="path-7"></path>
        <path d="M2.51661313,3.04754669 L5.60600635,3.04754669 C5.5446264,2.34273059 4.89001808,1.75236178 4.11247433,1.75236178 C3.29417443,1.75236178 2.61892475,2.32383329 2.51661313,3.04754669 Z M4.17385428,0 C6.281414,0 8,1.48567598 8,3.54267251 C8,3.67616467 7.97955172,3.92380222 7.95908588,4.05714681 C7.93862005,4.24748692 7.75446264,4.38082982 7.57030523,4.38082982 L2.33247328,4.38082982 C2.39385323,5.16184066 3.11001703,6.03809957 4.29663174,6.03809957 C4.9309322,6.03809957 5.52433609,5.80965955 5.89263335,5.56187105 C6.09708107,5.44757641 6.281414,5.40947989 6.42448177,5.56187105 L7.26340547,6.45717823 C7.40663121,6.59052113 7.44756288,6.79990915 7.24293964,6.95230167 C6.56770751,7.54282245 5.52433609,8 4.19432012,8 C1.73906938,8 0,6.19049073 0,4.00000034 C0,1.84760816 1.73906938,0 4.17385428,0 Z" id="path-9"></path>
        <path d="M5.00753885,0 C7.53509344,0 8.55,1.85364661 8.55,3.88291885 L8.55,7.62923947 C8.55,7.82437641 8.37087468,8 8.17200057,8 L6.53991855,8 C6.32098761,8 6.16191912,7.82437641 6.16191912,7.62923947 L6.16191912,3.76583567 C6.16191912,2.75127757 5.62454317,2.1073243 4.66917391,2.1073243 C3.63436454,2.1073243 2.9974574,2.80981832 2.79842927,3.3366901 L2.79842927,7.62923947 C2.79842927,7.90243136 2.67901239,8 2.30084183,8 L0.828170563,8 C0.629125318,8 0.45,7.82437641 0.45,7.62923947 L0.45,2.11491477 L0.45,0.565743462 L0.45,0.503947722 C0.45,0.308658121 0.629125318,0.133034193 0.828170563,0.133034193 L2.30084183,0.133034193 C2.67901239,0.133034193 2.79842927,0.230602665 2.79842927,0.503947722 L2.79842927,0.661917663 C3.29158436,0.336068616 4.03748635,0 5.00753885,0 Z" id="path-11"></path>
        <path d="M4.00009296,5.94285319 C5.03412738,5.94285319 5.8731965,5.06674863 5.8731965,3.98095208 C5.8731965,2.91435475 5.03412738,2.05729845 4.00009296,2.05729845 C2.94636764,2.05729845 2.12682041,2.91435475 2.12682041,3.98095208 C2.12682041,5.06674863 2.94636764,5.94285319 4.00009296,5.94285319 Z M4.00009296,0 C6.20476427,0 8,1.82855821 8,3.98095208 C8,6.17144077 6.20476427,8 4.00009296,8 C1.79521883,8 0,6.17144077 0,3.98095208 C0,1.82855821 1.79521883,0 4.00009296,0 Z" id="path-13"></path>
        <path d="M9.61066053,0.063785 C12.0850737,0.063785 12.9935684,1.88516333 12.9935684,3.89813167 L12.9935684,7.56021467 C12.9935684,7.75195467 12.8388855,7.924521 12.6262329,7.924521 L11.0604684,7.924521 C10.8478158,7.924521 10.6932868,7.75195467 10.6932868,7.56021467 L10.6932868,3.764065 C10.6932868,2.76716833 10.2098237,2.134425 9.24318816,2.134425 C8.12205789,2.134425 7.61941974,2.93958167 7.61941974,2.93958167 C7.61941974,2.93958167 7.63874868,3.32306333 7.63874868,3.668195 L7.63874868,7.56021467 C7.63874868,7.75195467 7.46490789,7.924521 7.27158421,7.924521 L5.82177632,7.924521 C5.60898684,7.924521 5.45430395,7.75195467 5.45430395,7.56021467 L5.45430395,3.764065 C5.45430395,2.76716833 5.00982368,2.134425 4.02385921,2.134425 C3.05722368,2.134425 2.59339737,2.82469 2.40007368,3.34239 L2.40007368,7.56021467 C2.40007368,7.75195467 2.22607895,7.924521 2.03260132,7.924521 L0.466819737,7.924521 C0.27365,7.924521 0.0996552632,7.75195467 0.0996552632,7.56021467 L0.0996552632,2.14188333 L0.0996552632,0.61968 L0.0996552632,0.55896 C0.0996552632,0.36707 0.27365,0.194503333 0.466819737,0.194503333 L1.89743553,0.194503333 C2.2646,0.194503333 2.38074474,0.290373333 2.38074474,0.55896 L2.38074474,0.678875 C2.84227895,0.364633333 3.51217237,0.063785 4.37169474,0.063785 C5.47363289,0.063785 6.24694474,0.485461667 6.88476579,1.25242 C7.21358026,0.907288333 8.21889079,0.063785 9.61066053,0.063785 Z" id="path-15"></path>
    </defs>
    <g id="UI/image/yenomforweb" stroke="none" stroke-width="1" fill="none" fill-rule="evenodd">
        <rect fill="#FFFFFF" x="0" y="0" width="160" height="120"></rect>
        <mask id="mask-2" fill="white">
            <use xlink:href="#path-1"></use>
        </mask>
        <g id="Background"></g>
        <text id="Comming-Soon…" mask="url(#mask-2)" font-family="AvenirNext-DemiBold, Avenir Next" font-size="16" font-weight="500" fill="#51ADCB">
            <tspan x="18" y="103">Comming Soon…</tspan>
        </text>
        <g id="Group" mask="url(#mask-2)">
            <g transform="translate(12.000000, 41.000000)">
                <g id="Group-22" stroke-width="1" fill="none" transform="translate(1.500000, 1.000000)">
                    <g id="Group-3">
                        <mask id="mask-4" fill="white">
                            <use xlink:href="#path-3"></use>
                        </mask>
                        <g id="Clip-2"></g>
                        <polygon id="Fill-1" fill="#FFE000" mask="url(#mask-4)" points="-1.1264204 15.1055344 15.0358516 15.1055344 15.0358516 -1.00809668 -1.1264204 -1.00809668"></polygon>
                    </g>
                    <g id="Group-6" transform="translate(0.000000, 1.000000)">
                        <mask id="mask-6" fill="white">
                            <use xlink:href="#path-5"></use>
                        </mask>
                        <g id="Clip-5"></g>
                        <polygon id="Fill-4" fill="#FF9002" mask="url(#mask-6)" points="-1.12690101 15.236503 15.035819 15.236503 15.035819 -1.23557461 -1.12690101 -1.23557461"></polygon>
                    </g>
                    <g id="Group-9" transform="translate(18.000000, 1.000000)">
                        <mask id="mask-8" fill="white">
                            <use xlink:href="#path-7"></use>
                        </mask>
                        <g id="Clip-8"></g>
                        <polygon id="Fill-7" fill="#111111" mask="url(#mask-8)" points="-0.925885714 15.1041814 11.9677454 15.1041814 11.9677454 -1.14910998 -0.925885714 -1.14910998"></polygon>
                    </g>
                    <g id="Group-12" transform="translate(27.000000, 7.000000)">
                        <mask id="mask-10" fill="white">
                            <use xlink:href="#path-9"></use>
                        </mask>
                        <g id="Clip-11"></g>
                        <polygon id="Fill-10" fill="#111111" mask="url(#mask-10)" points="-1.06666667 9.06666667 9.06666667 9.06666667 9.06666667 -1.06666667 -1.06666667 -1.06666667"></polygon>
                    </g>
                    <g id="Group-15" transform="translate(36.000000, 7.000000)">
                        <mask id="mask-12" fill="white">
                            <use xlink:href="#path-11"></use>
                        </mask>
                        <g id="Clip-14"></g>
                        <polygon id="Fill-13" fill="#111111" mask="url(#mask-12)" points="-0.45 8.88888889 9.45 8.88888889 9.45 -0.888888889 -0.45 -0.888888889"></polygon>
                    </g>
                    <g id="Group-18" transform="translate(46.000000, 7.000000)">
                        <mask id="mask-14" fill="white">
                            <use xlink:href="#path-13"></use>
                        </mask>
                        <g id="Clip-17"></g>
                        <polygon id="Fill-16" fill="#111111" mask="url(#mask-14)" points="-0.888888889 8.88888889 8.88888889 8.88888889 8.88888889 -0.888888889 -0.888888889 -0.888888889"></polygon>
                    </g>
                    <g id="Group-21" transform="translate(55.000000, 7.000000)">
                        <mask id="mask-16" fill="white">
                            <use xlink:href="#path-15"></use>
                        </mask>
                        <g id="Clip-20"></g>
                        <polygon id="Fill-19" fill="#111111" mask="url(#mask-16)" points="-1.07056711 9.06474633 14.1638011 9.06474633 14.1638011 -1.07644033 -1.07056711 -1.07644033"></polygon>
                    </g>
                </g>
                <path d="M75.868,9.856 L74.412,9.856 L74.412,8.32 L75.868,8.32 L75.868,7.184 C75.868,6.72533104 75.9186662,6.28533544 76.02,5.864 C76.1213338,5.44266456 76.2919988,5.0720016 76.532,4.752 C76.7720012,4.4319984 77.0893314,4.1786676 77.484,3.992 C77.8786686,3.8053324 78.3746637,3.712 78.972,3.712 C79.1853344,3.712 79.3639993,3.71999992 79.508,3.736 C79.6520007,3.75200008 79.7986659,3.78133312 79.948,3.824 L79.82,5.456 C79.7133328,5.42399984 79.5986673,5.39733344 79.476,5.376 C79.3533327,5.35466656 79.2226674,5.344 79.084,5.344 C78.8066653,5.344 78.5826675,5.3973328 78.412,5.504 C78.2413325,5.6106672 78.1106671,5.74933248 78.02,5.92 C77.9293329,6.09066752 77.8680002,6.27733232 77.836,6.48 C77.8039998,6.68266768 77.788,6.87999904 77.788,7.072 L77.788,8.32 L79.564,8.32 L79.564,9.856 L77.788,9.856 L77.788,16 L75.868,16 L75.868,9.856 Z M80.3,12.128 C80.3,11.519997 80.4093322,10.9680025 80.628,10.472 C80.8466678,9.97599752 81.1426648,9.55200176 81.516,9.2 C81.8893352,8.84799824 82.3319974,8.57600096 82.844,8.384 C83.3560026,8.19199904 83.8999971,8.096 84.476,8.096 C85.0520029,8.096 85.5959974,8.19199904 86.108,8.384 C86.6200026,8.57600096 87.0626648,8.84799824 87.436,9.2 C87.8093352,9.55200176 88.1053322,9.97599752 88.324,10.472 C88.5426678,10.9680025 88.652,11.519997 88.652,12.128 C88.652,12.736003 88.5426678,13.2906642 88.324,13.792 C88.1053322,14.2933358 87.8093352,14.7226649 87.436,15.08 C87.0626648,15.4373351 86.6200026,15.7173323 86.108,15.92 C85.5959974,16.1226677 85.0520029,16.224 84.476,16.224 C83.8999971,16.224 83.3560026,16.1226677 82.844,15.92 C82.3319974,15.7173323 81.8893352,15.4373351 81.516,15.08 C81.1426648,14.7226649 80.8466678,14.2933358 80.628,13.792 C80.4093322,13.2906642 80.3,12.736003 80.3,12.128 Z M82.252,12.128 C82.252,12.4266682 82.2973329,12.7253318 82.388,13.024 C82.4786671,13.3226682 82.6146658,13.5893322 82.796,13.824 C82.9773342,14.0586678 83.2066653,14.2506659 83.484,14.4 C83.7613347,14.5493341 84.0919981,14.624 84.476,14.624 C84.8600019,14.624 85.1906653,14.5493341 85.468,14.4 C85.7453347,14.2506659 85.9746658,14.0586678 86.156,13.824 C86.3373342,13.5893322 86.4733329,13.3226682 86.564,13.024 C86.6546671,12.7253318 86.7,12.4266682 86.7,12.128 C86.7,11.8293318 86.6546671,11.5333348 86.564,11.24 C86.4733329,10.9466652 86.3373342,10.6826678 86.156,10.448 C85.9746658,10.2133322 85.7453347,10.0240007 85.468,9.88 C85.1906653,9.73599928 84.8600019,9.664 84.476,9.664 C84.0919981,9.664 83.7613347,9.73599928 83.484,9.88 C83.2066653,10.0240007 82.9773342,10.2133322 82.796,10.448 C82.6146658,10.6826678 82.4786671,10.9466652 82.388,11.24 C82.2973329,11.5333348 82.252,11.8293318 82.252,12.128 Z M90.008,8.32 L91.848,8.32 L91.848,9.6 L91.88,9.6 C92.0933344,9.15199776 92.3919981,8.78933472 92.776,8.512 C93.1600019,8.23466528 93.6079974,8.096 94.12,8.096 C94.194667,8.096 94.2746662,8.09866664 94.36,8.104 C94.4453338,8.10933336 94.5199997,8.12266656 94.584,8.144 L94.584,9.904 C94.4559994,9.87199984 94.3466671,9.85066672 94.256,9.84 C94.1653329,9.82933328 94.0773338,9.824 93.992,9.824 C93.5546645,9.824 93.202668,9.9039992 92.936,10.064 C92.669332,10.2240008 92.4613341,10.4159989 92.312,10.64 C92.1626659,10.8640011 92.0613336,11.0933322 92.008,11.328 C91.9546664,11.5626678 91.928,11.7493326 91.928,11.888 L91.928,16 L90.008,16 L90.008,8.32 Z M99.276,4.672 L101.484,4.672 L103.676,12.992 L103.708,12.992 L106.204,4.672 L108.284,4.672 L110.732,12.992 L110.764,12.992 L113.004,4.672 L115.148,4.672 L111.836,16 L109.884,16 L107.228,7.504 L107.196,7.504 L104.54,16 L102.588,16 L99.276,4.672 Z M120.804,11.392 C120.804,11.1466654 120.769334,10.9120011 120.7,10.688 C120.630666,10.4639989 120.521334,10.2666675 120.372,10.096 C120.222666,9.92533248 120.033334,9.78933384 119.804,9.688 C119.574666,9.58666616 119.305335,9.536 118.996,9.536 C118.419997,9.536 117.932002,9.7093316 117.532,10.056 C117.131998,10.4026684 116.910667,10.8479973 116.868,11.392 L120.804,11.392 Z M122.724,12.256 L122.724,12.512 C122.724,12.5973338 122.718667,12.6826662 122.708,12.768 L116.868,12.768 C116.889333,13.0453347 116.961333,13.2986655 117.084,13.528 C117.206667,13.7573345 117.369332,13.9546658 117.572,14.12 C117.774668,14.2853342 118.003999,14.4159995 118.26,14.512 C118.516001,14.6080005 118.782665,14.656 119.06,14.656 C119.540002,14.656 119.945332,14.5680009 120.276,14.392 C120.606668,14.2159991 120.878666,13.9733349 121.092,13.664 L122.372,14.688 C121.614663,15.7120051 120.516007,16.224 119.076,16.224 C118.478664,16.224 117.929336,16.1306676 117.428,15.944 C116.926664,15.7573324 116.492002,15.493335 116.124,15.152 C115.755998,14.810665 115.468001,14.3920025 115.26,13.896 C115.051999,13.3999975 114.948,12.8373365 114.948,12.208 C114.948,11.5893302 115.051999,11.0266692 115.26,10.52 C115.468001,10.0133308 115.753332,9.58133512 116.116,9.224 C116.478668,8.86666488 116.907998,8.58933432 117.404,8.392 C117.900002,8.19466568 118.435997,8.096 119.012,8.096 C119.545336,8.096 120.038664,8.18399912 120.492,8.36 C120.945336,8.53600088 121.337332,8.7973316 121.668,9.144 C121.998668,9.4906684 122.257332,9.92266408 122.444,10.44 C122.630668,10.9573359 122.724,11.5626632 122.724,12.256 Z M126.532,3.904 L126.532,9.296 L126.58,9.296 C126.676,9.16799936 126.798666,9.03466736 126.948,8.896 C127.097334,8.75733264 127.275999,8.62933392 127.484,8.512 C127.692001,8.39466608 127.934665,8.2960004 128.212,8.216 C128.489335,8.1359996 128.803998,8.096 129.156,8.096 C129.700003,8.096 130.201331,8.19999896 130.66,8.408 C131.118669,8.61600104 131.513332,8.90133152 131.844,9.264 C132.174668,9.62666848 132.430666,10.0533309 132.612,10.544 C132.793334,11.0346691 132.884,11.5626638 132.884,12.128 C132.884,12.6933362 132.796001,13.2239975 132.62,13.72 C132.443999,14.2160025 132.193335,14.6479982 131.868,15.016 C131.542665,15.3840018 131.148002,15.6773322 130.684,15.896 C130.219998,16.1146678 129.69467,16.224 129.108,16.224 C128.563997,16.224 128.054669,16.1066678 127.58,15.872 C127.105331,15.6373322 126.734668,15.2960022 126.468,14.848 L126.436,14.848 L126.436,16 L124.612,16 L124.612,3.904 L126.532,3.904 Z M130.932,12.128 C130.932,11.8293318 130.886667,11.5333348 130.796,11.24 C130.705333,10.9466652 130.569334,10.6826678 130.388,10.448 C130.206666,10.2133322 129.977335,10.0240007 129.7,9.88 C129.422665,9.73599928 129.097335,9.664 128.724,9.664 C128.371998,9.664 128.057335,9.73866592 127.78,9.888 C127.502665,10.0373341 127.265334,10.2293322 127.068,10.464 C126.870666,10.6986678 126.721334,10.9653318 126.62,11.264 C126.518666,11.5626682 126.468,11.8613318 126.468,12.16 C126.468,12.4586682 126.518666,12.7546652 126.62,13.048 C126.721334,13.3413348 126.870666,13.6053322 127.068,13.84 C127.265334,14.0746678 127.502665,14.2639993 127.78,14.408 C128.057335,14.5520007 128.371998,14.624 128.724,14.624 C129.097335,14.624 129.422665,14.5493341 129.7,14.4 C129.977335,14.2506659 130.206666,14.0586678 130.388,13.824 C130.569334,13.5893322 130.705333,13.3226682 130.796,13.024 C130.886667,12.7253318 130.932,12.4266682 130.932,12.128 Z" id="for-Web" fill="#111111"></path>
                <rect id="Rectangle" fill-opacity="0.7" fill="#FFFFFF" x="0.5" y="0.5" width="134" height="28"></rect>
            </g>
        </g>
    </g>
</svg>